<?xml version="1.0" standalone="no"?><!DOCTYPE svg PUBLIC "-//W3C//DTD SVG 1.1//EN" "http://www.w3.org/Graphics/SVG/1.1/DTD/svg11.dtd"><svg class="icon" width="32px" height="25.62px" viewBox="0 0 1279 1024" version="1.1" xmlns="http://www.w3.org/2000/svg"><path fill="#707070" d="M1204.585427 670.124234c61.816273 106.461359 59.832521 219.855185 59.725867 224.633255a31.462734 31.462734 0 0 1-31.441403 30.694829l-0.767904-0.02133a31.441403 31.441403 0 0 1-30.69483-32.166646c0.021331-0.95988 1.407824-100.936716-51.257592-191.57072-62.6695-107.933175-197.351331-142.29688-198.695163-142.638171a31.441403 31.441403 0 0 1-5.609966-59.085947c5.951256-2.794317 147.352248-70.284548 135.172437-201.46815-11.795859-126.853477-126.106903-162.77432-130.948965-164.224805a31.505395 31.505395 0 0 1-21.160021-39.077782 31.484064 31.484064 0 0 1 38.928467-21.245345c6.527184 1.898429 160.022664 48.61259 175.828688 218.745991 10.452027 112.540599-59.619214 187.880515-113.393826 228.472774 53.561305 24.231638 128.453277 69.985918 174.314211 148.952047z m-435.060284-128.538599c201.510811 68.471441 296.538933 291.65421 296.538932 450.951631 0 17.384494-14.07824 31.441403-31.462734 31.441403a31.441403 31.441403 0 0 1-31.462733-31.441403c0-164.928717-115.4629-408.972878-363.303921-408.972878-142.552848 0-228.110153 77.643628-274.781652 142.766154-63.842686 89.076865-86.581177 195.922176-86.581177 266.206724a31.441403 31.441403 0 0 1-62.925468 0c0-103.688372 36.752739-216.890222 98.334375-302.810149 39.291089-54.819814 102.088572-116.977378 195.836854-148.39745-82.762988-49.316502-138.947965-144.045994-138.947965-252.619089 0-159.190768 120.710245-288.710578 269.086364-288.710578 148.354789 0 269.065034 129.51981 269.065034 288.710578 0 108.765071-56.376953 203.665209-139.395909 252.875057z m-129.690456-478.702829c-113.671124 0-206.139566 101.299338-206.139566 225.827772s92.468441 225.827772 206.139566 225.827771 206.139566-101.299338 206.139566-225.827771-92.468441-225.827772-206.139566-225.827772zM334.059576 499.969504a31.420072 31.420072 0 1 1-5.631296 59.085947c-1.343832 0.341291-136.025663 34.704995-198.695163 142.638171-52.644086 90.634004-51.257593 190.61084-51.236262 191.57072a31.441403 31.441403 0 0 1-30.716161 32.166646l-0.746573 0.02133a31.441403 31.441403 0 0 1-31.441403-30.694829c-0.106653-4.778069-2.111736-118.171895 59.725867-224.633255 45.839603-78.966129 120.731575-124.72041 174.29288-148.952047-53.774612-40.592259-123.845853-115.932175-113.393826-228.472774 15.806024-170.1334 169.322835-216.847561 175.850019-218.745991a31.462734 31.462734 0 0 1 17.768446 60.323127c-4.863392 1.450485-119.174437 37.371329-130.948965 164.224805-12.179811 131.183602 129.19985 198.673832 135.172437 201.46815z" /></svg>