<?xml version="1.0" encoding="utf-8"?>
<!-- Generator: Adobe Illustrator 21.0.0, SVG Export Plug-In . SVG Version: 6.00 Build 0)  -->
<svg version="1.1" id="图层_1" xmlns="http://www.w3.org/2000/svg" xmlns:xlink="http://www.w3.org/1999/xlink" x="0px" y="0px"
	 viewBox="0 0 200.6 200" style="enable-background:new 0 0 200.6 200;" xml:space="preserve">
<path d="M199.3,90l-36.2-45c-3.8-5-11.2-5-15,0l-36.2,45c-2.5,3.8,0,8.7,3.8,8.7h13.8c0,26.3,0,60-47.5,87.5c-1.2,1.2,0,2.5,1.2,2.5
	c88.7-13.8,96.2-73.8,96.2-90h15C199.3,98.8,201.8,93.8,199.3,90L199.3,90L199.3,90z M85.6,101.3h-15c0-26.2,0-60,47.5-87.5
	c1.3-1.2,0-2.5-1.2-2.5C28.1,25,20.6,85,20.6,101.3h-15c-5,0-7.5,5-3.8,8.7l36.2,45c3.8,5,11.2,5,15,0l36.3-45
	C91.8,106.2,89.3,101.3,85.6,101.3L85.6,101.3L85.6,101.3z"/>
</svg>
